#  ==========================================================================
#  
#  Wavefront OBJ format exported by Red-i Productions' "Riptide Pro"
#     (a commercial plugin for Cinema 4D PC & Mac, R9.6 or later)
#  
#  Red-i Productions
#  http://skinprops.com
#  
#  ==========================================================================
mtllib drop.mtl
v 0 -2 -0
v 0 2 -0
v 0.05 -2 -0
v 0.05 -2 -0
v 0.05 2 -0
v 0.05 2 -0
v 0.0433013 -2 -0.025
v 0.0433013 -2 -0.025
v 0.0433013 2 -0.025
v 0.0433013 2 -0.025
v 0.025 -2 -0.0433013
v 0.025 -2 -0.0433013
v 0.025 2 -0.0433013
v 0.025 2 -0.0433013
v 3.06162e-18 -2 -0.05
v 3.06162e-18 -2 -0.05
v 3.06162e-18 2 -0.05
v 3.06162e-18 2 -0.05
v -0.025 -2 -0.0433013
v -0.025 -2 -0.0433013
v -0.025 2 -0.0433013
v -0.025 2 -0.0433013
v -0.0433013 -2 -0.025
v -0.0433013 -2 -0.025
v -0.0433013 2 -0.025
v -0.0433013 2 -0.025
v -0.05 -2 -6.12323e-18
v -0.05 -2 -6.12323e-18
v -0.05 2 -6.12323e-18
v -0.05 2 -6.12323e-18
v -0.0433013 -2 0.025
v -0.0433013 -2 0.025
v -0.0433013 2 0.025
v -0.0433013 2 0.025
v -0.025 -2 0.0433013
v -0.025 -2 0.0433013
v -0.025 2 0.0433013
v -0.025 2 0.0433013
v -9.18485e-18 -2 0.05
v -9.18485e-18 -2 0.05
v -9.18485e-18 2 0.05
v -9.18485e-18 2 0.05
v 0.025 -2 0.0433013
v 0.025 -2 0.0433013
v 0.025 2 0.0433013
v 0.025 2 0.0433013
v 0.0433013 -2 0.025
v 0.0433013 -2 0.025
v 0.0433013 2 0.025
v 0.0433013 2 0.025
# 50 vertices

vt 0.50000 0.50000
vt 0.00000 0.50000
vt 0.06699 0.75000
vt 0.00000 0.00000
vt 0.00000 1.00000
vt 0.08333 1.00000
vt 0.08333 0.00000
vt 1.00000 0.50000
vt 0.93301 0.75000
vt 0.25000 0.93301
vt 0.16667 1.00000
vt 0.16667 0.00000
vt 0.75000 0.93301
vt 0.50000 1.00000
vt 0.25000 1.00000
vt 0.25000 0.00000
vt 0.33333 1.00000
vt 0.33333 0.00000
vt 0.41667 1.00000
vt 0.41667 0.00000
vt 0.50000 0.00000
vt 0.93301 0.25000
vt 0.58333 1.00000
vt 0.58333 0.00000
vt 0.06699 0.25000
vt 0.75000 0.06699
vt 0.66667 1.00000
vt 0.66667 0.00000
vt 0.25000 0.06699
vt 0.75000 1.00000
vt 0.75000 0.00000
vt 0.83333 1.00000
vt 0.83333 0.00000
vt 0.91667 1.00000
vt 0.91667 0.00000
vt 1.00000 1.00000
vt 1.00000 0.00000
# 37 texture coordinates

vn 0 -1 -0
vn 1 0 -0
vn 0.866025 0 -0.5
vn 0 1 -0
vn 0.5 0 -0.866025
vn 0 0 -1
vn -0.5 0 -0.866025
vn -0.866025 0 -0.5
vn -1 0 -0
vn -0.866025 0 0.5
vn -0.5 0 0.866025
vn 0 0 1
vn 0.5 0 0.866025
vn 0.866025 0 0.5
# 14 vertex normals

f 7/3/1 3/2/1 1/1/1
f 8/7/3 9/6/3 5/5/2 4/4/2
f 10/9/4 2/1/4 6/8/4
f 11/10/1 7/3/1 1/1/1
f 12/12/5 13/11/5 9/6/3 8/7/3
f 14/13/4 2/1/4 10/9/4
f 15/14/1 11/10/1 1/1/1
f 16/16/6 17/15/6 13/11/5 12/12/5
f 18/14/4 2/1/4 14/13/4
f 19/13/1 15/14/1 1/1/1
f 20/18/7 21/17/7 17/15/6 16/16/6
f 22/10/4 2/1/4 18/14/4
f 23/9/1 19/13/1 1/1/1
f 24/20/8 25/19/8 21/17/7 20/18/7
f 26/3/4 2/1/4 22/10/4
f 27/8/1 23/9/1 1/1/1
f 28/21/9 29/14/9 25/19/8 24/20/8
f 30/2/4 2/1/4 26/3/4
f 31/22/1 27/8/1 1/1/1
f 32/24/10 33/23/10 29/14/9 28/21/9
f 34/25/4 2/1/4 30/2/4
f 35/26/1 31/22/1 1/1/1
f 36/28/11 37/27/11 33/23/10 32/24/10
f 38/29/4 2/1/4 34/25/4
f 39/21/1 35/26/1 1/1/1
f 40/31/12 41/30/12 37/27/11 36/28/11
f 42/21/4 2/1/4 38/29/4
f 43/29/1 39/21/1 1/1/1
f 44/33/13 45/32/13 41/30/12 40/31/12
f 46/26/4 2/1/4 42/21/4
f 47/25/1 43/29/1 1/1/1
f 48/35/14 49/34/14 45/32/13 44/33/13
f 50/22/4 2/1/4 46/26/4
f 3/2/1 47/25/1 1/1/1
f 4/37/2 5/36/2 49/34/14 48/35/14
f 6/8/4 2/1/4 50/22/4
# 36 facets

