# Blender v3.0.0 Alpha OBJ File: ''
# www.blender.org
mtllib backdrop.mtl
o Plane
v -1.000000 0.000000 1.000000
v 1.000000 0.000000 1.000000
v -1.000000 2.000000 -1.000000
v 1.000000 2.000000 -1.000000
v -1.000000 0.000000 -0.455728
v -1.000000 0.544272 -1.000000
v -1.000000 0.013646 -0.576840
v -1.000000 0.053900 -0.691879
v -1.000000 0.118743 -0.795076
v -1.000000 0.204924 -0.881257
v -1.000000 0.308121 -0.946100
v -1.000000 0.423160 -0.986354
v 1.000000 0.544272 -1.000000
v 1.000000 0.000000 -0.455728
v 1.000000 0.423160 -0.986354
v 1.000000 0.308121 -0.946100
v 1.000000 0.204924 -0.881257
v 1.000000 0.118743 -0.795076
v 1.000000 0.053900 -0.691879
v 1.000000 0.013646 -0.576840
vt 0.000000 1.000000
vt 1.000000 1.000000
vt 1.000000 1.000000
vt 0.000000 1.000000
vt 0.000000 1.000000
vt 1.000000 1.000000
vt 0.000000 1.000000
vt 1.000000 1.000000
vt 0.000000 1.000000
vt 1.000000 1.000000
vt 0.000000 0.897538
vt 1.000000 0.897538
vt 0.000000 0.845939
vt 1.000000 0.845939
vt 0.000000 0.788420
vt 1.000000 0.788420
vt 0.000000 0.727864
vt 1.000000 0.727864
vt 0.000000 0.000000
vt 1.000000 0.000000
vn 0.0000 0.0561 0.9984
vn 0.0000 0.0000 1.0000
vn 0.0000 0.2225 0.9749
vn 0.0000 0.4339 0.9010
vn 0.0000 0.6235 0.7818
vn 0.0000 0.7818 0.6235
vn 0.0000 0.9010 0.4339
vn 0.0000 0.9749 0.2225
vn 0.0000 0.9984 0.0561
vn 0.0000 1.0000 0.0000
usemtl None
s 1
f 6/1/1 13/2/1 4/3/2 3/4/2
f 13/2/1 6/1/1 12/5/3 15/6/3
f 15/6/3 12/5/3 11/7/4 16/8/4
f 16/8/4 11/7/4 10/9/5 17/10/5
f 17/10/5 10/9/5 9/11/6 18/12/6
f 18/12/6 9/11/6 8/13/7 19/14/7
f 19/14/7 8/13/7 7/15/8 20/16/8
f 20/16/8 7/15/8 5/17/9 14/18/9
f 1/19/10 2/20/10 14/18/9 5/17/9
